# File created by Blade
# Date/Time:  Fri Jan 16 19:00:24 2015
# Frame Rate: 120.000 fps
#------------------------------------------------------
:FULLY-SPECIFIED
:DEGREES
3248
root 18.638963 36.687743 -21.587793 -192.285021 -24.257611 -168.267982
Spine 16.112632 -14.656055 -5.603638
Head 7.540377 -7.301746 18.826135
LeftShoulder -7.292747 -28.396677 14.153589
LeftArm 5.706988 -0.994413 -17.139758
LeftForeArm -0.472137 -0.000000 0.895404
LeftHand -1.709126 -0.000000 2.624617
LeftHandThumb1 -26.253704 0.000000 33.147579
RightShoulder -15.424446 -2.838672 -0.951491
RightArm -10.816923 53.758398 18.444109
RightForeArm -22.167202 -0.000000 25.562637
RightHand -12.018680 0.000000 -5.524022
RightHandThumb1 -24.326973 -0.000000 -32.862282
LeftUpLeg 9.971071 4.353555 4.863059
LeftLeg -2.026102 -0.000000 0.000000
LeftFoot -16.675638 6.480161 -15.884235
LeftToeBase 48.633189 -0.000000 -0.000000
RightUpLeg -65.628248 6.957572 22.070771
RightLeg 108.817556 -0.000000 -0.000000
RightFoot 34.167108 -37.109088 -19.241440
RightToeBase 22.352980 -0.000000 -0.000000
3249
root 18.633348 36.683156 -21.576625 -191.993220 -23.847150 -168.313996
Spine 15.781486 -14.247964 -5.520184
Head 7.563293 -7.331217 18.829534
LeftShoulder -7.322767 -28.444934 14.127254
LeftArm 5.554548 -0.931143 -17.134335
LeftForeArm -0.421801 -0.000000 0.988873
LeftHand -1.751987 -0.000000 2.680196
LeftHandThumb1 -26.253704 0.000000 33.147579
RightShoulder -15.349524 -2.956108 -0.959320
RightArm -10.522569 53.975497 18.820862
RightForeArm -22.806207 0.000000 26.223276
RightHand -11.945660 -0.000000 -5.271387
RightHandThumb1 -24.326973 -0.000000 -32.862282
LeftUpLeg 9.912094 4.690695 4.875258
LeftLeg -2.304663 -0.000000 0.000000
LeftFoot -16.699175 6.540297 -16.011188
LeftToeBase 48.804057 -0.000000 -0.000000
RightUpLeg -64.759950 6.805520 21.814574
RightLeg 108.297816 -0.000000 -0.000000
RightFoot 34.227642 -37.481711 -18.735730
RightToeBase 21.489121 -0.000000 -0.000000
3250
root 18.631904 36.676931 -21.563732 -191.647857 -23.476016 -168.368742
Spine 15.409253 -13.884559 -5.467394
Head 7.517196 -7.350760 18.905131
LeftShoulder -7.404562 -28.367206 14.094787
LeftArm 5.567405 -0.920246 -17.111077
LeftForeArm -0.443286 -0.000000 0.995268
LeftHand -1.737003 -0.000000 2.612284
LeftHandThumb1 -26.253704 0.000000 33.147579
RightShoulder -15.286457 -2.938024 -0.883900
RightArm -10.295746 53.531482 19.025654
RightForeArm -22.981310 -0.000000 26.893406
RightHand -12.071944 -0.000000 -5.198526
RightHandThumb1 -24.326973 -0.000000 -32.862282
LeftUpLeg 9.785658 4.939013 4.862442
LeftLeg -2.566945 -0.000000 0.000000
LeftFoot -16.707373 6.630642 -16.088843
LeftToeBase 48.898552 -0.000000 -0.000000
RightUpLeg -63.944696 6.712644 21.530250
RightLeg 107.754443 -0.000000 -0.000000
RightFoot 34.205361 -37.431805 -18.704823
RightToeBase 21.001024 -0.000000 -0.000000
3251
root 18.631197 36.670919 -21.548285 -191.240968 -23.111644 -168.412226
Spine 14.940016 -13.559133 -5.390950
Head 7.562862 -7.387649 18.904223
LeftShoulder -7.452894 -28.229752 14.032560
LeftArm 5.545015 -1.007113 -17.093104
LeftForeArm -0.363998 -0.000000 1.070001
LeftHand -1.771150 -0.000000 2.641756
LeftHandThumb1 -26.253704 0.000000 33.147579
RightShoulder -15.213313 -3.022423 -0.820648
RightArm -10.012766 53.439472 19.290043
RightForeArm -23.444459 0.000000 27.459742
RightHand -12.145277 -0.000000 -5.177613
RightHandThumb1 -24.326973 -0.000000 -32.862282
LeftUpLeg 9.568163 5.165904 4.847105
LeftLeg -2.790550 -0.000000 0.000000
LeftFoot -16.718475 6.714706 -16.172817
LeftToeBase 48.910597 -0.000000 -0.000000
RightUpLeg -63.205334 6.656631 21.252433
RightLeg 107.196955 -0.000000 -0.000000
RightFoot 34.157415 -37.173145 -18.711306
RightToeBase 21.464417 -0.000000 -0.000000
